<svg width="151" height="38" viewBox="0 0 151 38" fill="none" xmlns="http://www.w3.org/2000/svg">
<path d="M28.6513 22.1316L30.3648 23.5068L17.9586 33.5146L5.55242 23.5068L8.372 21.2429L11.1482 19.0002L15.0089 15.8687C16.7223 14.4935 19.1949 14.4935 20.8866 15.8687L23.6628 18.1115L26.4607 15.8687L23.164 13.2028C20.1492 10.7696 15.768 10.7696 12.7532 13.2028L8.89254 16.3342L5.11863 19.381L0 23.5068L17.9586 38.0002L35.9172 23.5068L31.4275 19.8888L28.6513 22.1316Z" fill="#18C282"/>
<path d="M5.55291 14.4933L17.9591 4.48553L30.3653 14.4933L27.5457 16.7573L24.7695 19L20.9088 22.1314C19.1954 23.5067 16.7228 23.5067 15.0311 22.1314L12.2332 19.8887L9.45695 22.1314L12.7537 24.7974C14.2502 26.0034 16.1155 26.617 17.9591 26.617C19.8027 26.617 21.6462 26.0034 23.1645 24.7974L27.5674 21.2639L30.3436 19.0212L35.9394 14.5145L17.9591 0L0.000488281 14.4933L4.49014 18.1114L7.26635 15.8686L5.55291 14.4933Z" fill="#0264E1"/>
<path d="M17.9586 21.2219C19.1924 21.2219 20.1926 20.2462 20.1926 19.0426C20.1926 17.839 19.1924 16.8633 17.9586 16.8633C16.7248 16.8633 15.7246 17.839 15.7246 19.0426C15.7246 20.2462 16.7248 21.2219 17.9586 21.2219Z" fill="#2A2A2A"/>
<path d="M46.6104 24.0996V10.1987H53.1388C54.0063 10.1987 54.7655 10.3468 55.4161 10.6219C56.0668 10.8969 56.5657 11.3201 56.9127 11.8279C57.2814 12.3569 57.4549 12.9704 57.4549 13.711V13.9014C57.4549 14.5362 57.3248 15.0651 57.0862 15.4671C56.8476 15.8691 56.544 16.1865 56.2186 16.3981C55.8933 16.6097 55.568 16.7789 55.2643 16.8635V17.2232C55.568 17.3079 55.8933 17.456 56.2403 17.6676C56.5873 17.8791 56.891 18.1965 57.1513 18.6197C57.4115 19.0217 57.52 19.5718 57.52 20.2277V20.4181C57.52 21.1798 57.3465 21.8357 56.9778 22.3858C56.609 22.9359 56.1102 23.3591 55.4595 23.6553C54.8088 23.9515 54.0714 24.0996 53.2038 24.0996H46.6104ZM49.2998 15.9326H52.8568C53.4207 15.9326 53.8762 15.7845 54.2232 15.5094C54.592 15.2344 54.7655 14.8535 54.7655 14.3669V14.1765C54.7655 13.6687 54.592 13.2878 54.2449 13.0128C53.8979 12.7377 53.4207 12.6108 52.8568 12.6108H49.2998V15.9326ZM49.2998 21.7088H52.9002C53.4858 21.7088 53.963 21.5607 54.31 21.2856C54.6787 21.0105 54.8522 20.6085 54.8522 20.1007V19.9103C54.8522 19.4025 54.6787 19.0005 54.3317 18.7255C53.9847 18.4504 53.5075 18.3023 52.9002 18.3023H49.2998V21.7088Z" fill="#2A2A2A"/>
<path d="M59.8193 24.0996V10.1987H62.3787V24.0996H59.8193Z" fill="#2A2A2A"/>
<path d="M70.0343 24.3743C69.0366 24.3743 68.1257 24.1839 67.3232 23.7819C66.5207 23.3799 65.8917 22.8086 65.4362 22.0469C64.9808 21.2852 64.7422 20.3966 64.7422 19.3175V19.0002C64.7422 17.9422 64.9808 17.0324 65.4362 16.2708C65.8917 15.5091 66.5207 14.9378 67.3232 14.5358C68.1257 14.1338 69.0149 13.9434 70.0343 13.9434C71.032 13.9434 71.943 14.1338 72.7455 14.5358C73.548 14.9378 74.177 15.5091 74.6324 16.2708C75.0879 17.0324 75.3265 17.9211 75.3265 19.0002V19.3175C75.3265 20.3754 75.0879 21.2852 74.6324 22.0469C74.177 22.8086 73.548 23.3799 72.7455 23.7819C71.943 24.1839 71.032 24.3743 70.0343 24.3743ZM70.0343 22.1527C70.8151 22.1527 71.4658 21.8988 71.9864 21.4122C72.5069 20.9255 72.7672 20.2062 72.7672 19.2752V19.0848C72.7672 18.1538 72.5069 17.4556 72.008 16.9478C71.5092 16.4612 70.8368 16.2073 70.0343 16.2073C69.2535 16.2073 68.6029 16.4612 68.0823 16.9478C67.5618 17.4345 67.3015 18.1538 67.3015 19.0848V19.2752C67.3015 20.2062 67.5618 20.9044 68.0823 21.4122C68.6029 21.8988 69.2535 22.1527 70.0343 22.1527Z" fill="#2A2A2A"/>
<path d="M82.419 24.3735C81.443 24.3735 80.5537 24.1831 79.7729 23.7811C78.9704 23.3791 78.3414 22.8078 77.8859 22.0461C77.4305 21.2844 77.1919 20.3746 77.1919 19.3167V19.0417C77.1919 17.9626 77.4305 17.0528 77.8859 16.3123C78.3414 15.5506 78.9704 14.9793 79.7729 14.5773C80.5754 14.1753 81.443 13.9849 82.419 13.9849C83.3733 13.9849 84.2192 14.1541 84.8915 14.4715C85.5856 14.81 86.1495 15.2544 86.5616 15.8256C86.9737 16.3969 87.2773 17.0528 87.4075 17.7722L84.9349 18.28C84.8915 17.878 84.7614 17.5183 84.5662 17.2009C84.371 16.8835 84.1107 16.6296 83.7637 16.4392C83.4167 16.2488 82.9829 16.1642 82.4624 16.1642C81.9418 16.1642 81.4863 16.2699 81.0742 16.4815C80.6622 16.6931 80.3368 17.0316 80.0982 17.4548C79.8597 17.878 79.7512 18.4069 79.7512 19.0417V19.2321C79.7512 19.8457 79.8597 20.3746 80.0982 20.8189C80.3368 21.2421 80.6622 21.5806 81.0742 21.7922C81.4863 22.0038 81.9418 22.1096 82.4624 22.1096C83.2432 22.1096 83.8288 21.9192 84.2192 21.5172C84.6096 21.1363 84.8698 20.6074 84.9783 19.9726L87.4509 20.5439C87.2773 21.2421 86.9737 21.8769 86.5399 22.4693C86.1061 23.0617 85.5639 23.506 84.8698 23.8234C84.2192 24.2043 83.395 24.3735 82.419 24.3735Z" fill="#2A2A2A"/>
<path d="M89.6201 24.0996V10.1987H92.1794V17.8791H92.5481L95.8666 14.2611H99.2067L94.5435 19.0217L99.3585 24.0996H96.0835L92.5481 20.1854H92.1794V24.0996H89.6201Z" fill="#2A2A2A"/>
<path d="M105.952 24.374C104.846 24.374 103.891 24.1836 103.045 23.8028C102.2 23.4219 101.549 22.8718 101.072 22.1524C100.595 21.433 100.356 20.5867 100.356 19.5711V19.021H103.002V19.5711C103.002 20.3963 103.262 21.031 103.805 21.4542C104.325 21.8774 105.062 22.089 105.952 22.089C106.884 22.089 107.557 21.9197 108.012 21.56C108.468 21.2003 108.685 20.756 108.685 20.1847C108.685 19.8039 108.576 19.4865 108.359 19.2538C108.142 19.021 107.817 18.8306 107.383 18.6613C106.949 18.5132 106.429 18.3651 105.822 18.2382L105.344 18.1324C104.368 17.9208 103.523 17.6457 102.829 17.3284C102.134 17.011 101.592 16.5878 101.224 16.0377C100.855 15.5088 100.66 14.8105 100.66 13.9642C100.66 13.1179 100.876 12.3985 101.289 11.7849C101.701 11.1925 102.286 10.727 103.045 10.3885C103.805 10.0711 104.694 9.90186 105.691 9.90186C106.711 9.90186 107.622 10.0711 108.403 10.4097C109.183 10.7482 109.812 11.256 110.268 11.9119C110.723 12.5889 110.94 13.4141 110.94 14.4297V15.0221H108.294V14.4297C108.294 13.9007 108.186 13.4776 107.969 13.1391C107.752 12.8217 107.448 12.5678 107.058 12.4197C106.667 12.2716 106.19 12.1869 105.648 12.1869C104.824 12.1869 104.238 12.335 103.848 12.6313C103.457 12.9275 103.262 13.3295 103.262 13.8584C103.262 14.197 103.349 14.4932 103.544 14.7259C103.718 14.9587 104 15.1702 104.368 15.3183C104.737 15.4876 105.193 15.6146 105.778 15.7415L106.255 15.8473C107.275 16.0589 108.164 16.3339 108.901 16.6513C109.661 16.9898 110.246 17.413 110.658 17.9631C111.07 18.5132 111.287 19.1903 111.287 20.0578C111.287 20.9041 111.07 21.6446 110.637 22.3005C110.203 22.9353 109.574 23.4431 108.771 23.8028C107.991 24.2048 107.058 24.374 105.952 24.374Z" fill="#2A2A2A"/>
<path d="M114.692 13.0971C114.237 13.0971 113.846 12.949 113.521 12.6527C113.196 12.3565 113.044 11.9757 113.044 11.5102C113.044 11.0236 113.196 10.6427 113.521 10.3677C113.846 10.0714 114.237 9.92334 114.692 9.92334C115.169 9.92334 115.56 10.0714 115.864 10.3677C116.167 10.6639 116.341 11.0447 116.341 11.5102C116.341 11.9968 116.189 12.3777 115.864 12.6527C115.56 12.949 115.169 13.0971 114.692 13.0971ZM113.413 24.0993V14.2608H115.972V24.0993H113.413Z" fill="#2A2A2A"/>
<path d="M118.336 19.2116V18.8942C118.336 17.8575 118.553 16.9688 118.965 16.2494C119.377 15.5089 119.941 14.9588 120.635 14.5568C121.329 14.1759 122.088 13.9644 122.934 13.9644C123.867 13.9644 124.561 14.1336 125.038 14.451C125.515 14.7684 125.862 15.1069 126.079 15.4454H126.448V14.2606H128.964V25.8552C128.964 26.5323 128.768 27.0613 128.356 27.4633C127.944 27.8653 127.402 28.0768 126.73 28.0768H119.984V25.8976H125.84C126.231 25.8976 126.404 25.7071 126.404 25.3051V22.745H126.036C125.905 22.9566 125.71 23.1682 125.472 23.3797C125.233 23.5913 124.908 23.7817 124.496 23.9298C124.084 24.078 123.563 24.1414 122.956 24.1414C122.132 24.1414 121.372 23.951 120.657 23.549C119.963 23.1682 119.399 22.5969 118.987 21.8563C118.553 21.137 118.336 20.2483 118.336 19.2116ZM123.671 21.9621C124.452 21.9621 125.125 21.7082 125.645 21.2216C126.166 20.735 126.448 20.0367 126.448 19.1481V18.9577C126.448 18.0479 126.187 17.3708 125.667 16.8842C125.146 16.3975 124.474 16.1648 123.693 16.1648C122.912 16.1648 122.24 16.3975 121.719 16.8842C121.199 17.3708 120.917 18.069 120.917 18.9577V19.1481C120.917 20.0367 121.177 20.7138 121.719 21.2216C122.218 21.7082 122.891 21.9621 123.671 21.9621Z" fill="#2A2A2A"/>
<path d="M131.805 24.0996V10.1987H134.364V15.4671H134.733C134.842 15.2555 135.015 15.0439 135.232 14.8324C135.471 14.6208 135.774 14.4515 136.165 14.3034C136.555 14.1553 137.032 14.0918 137.64 14.0918C138.42 14.0918 139.114 14.2611 139.7 14.6208C140.286 14.9805 140.741 15.446 141.066 16.0595C141.392 16.6731 141.565 17.3925 141.565 18.2177V24.0996H139.006V18.4293C139.006 17.6887 138.811 17.1386 138.442 16.7578C138.073 16.3769 137.531 16.2076 136.837 16.2076C136.056 16.2076 135.449 16.4615 135.015 16.9693C134.581 17.4771 134.364 18.1965 134.364 19.1063V24.0996H131.805Z" fill="#2A2A2A"/>
<path d="M147.92 24.0993C147.248 24.0993 146.705 23.8878 146.293 23.4858C145.881 23.0838 145.664 22.5336 145.664 21.8777V16.3131H143.148V14.2396H145.664V11.1929H148.224V14.2396H151V16.3131H148.224V21.4334C148.224 21.8354 148.419 22.0258 148.788 22.0258H150.74V24.0993H147.92Z" fill="#2A2A2A"/>
</svg>
